<svg width="56" height="57" viewBox="0 0 56 57" fill="none" xmlns="http://www.w3.org/2000/svg">
<path d="M15.3477 36.9033C12.0465 38.869 3.39118 42.8826 8.66288 47.9049C11.2381 50.3583 14.1061 52.113 17.712 52.113H38.288C41.8939 52.113 44.7619 50.3583 47.3371 47.9049C52.6088 42.8826 43.9535 38.8689 40.6523 36.9033C32.9112 32.2939 23.0888 32.2939 15.3477 36.9033Z" stroke="#B18E4E" stroke-width="2.5" stroke-linecap="round" stroke-linejoin="round"/>
<path d="M38.5 15.9463C38.5 21.7453 33.799 26.4463 28 26.4463C22.201 26.4463 17.5 21.7453 17.5 15.9463C17.5 10.1473 22.201 5.44629 28 5.44629C33.799 5.44629 38.5 10.1473 38.5 15.9463Z" stroke="#B18E4E" stroke-width="2.5"/>
</svg>
